<?xml version="1.0" encoding="UTF-8"?><svg id="a" xmlns="http://www.w3.org/2000/svg" viewBox="0 0 1022.63 1024"><defs><style>.b{fill:#201e1f;}</style></defs><path class="b" d="M406.81,813.62C182.5,813.62,0,631.13,0,406.81S182.5,0,406.81,0s406.81,182.49,406.81,406.81-182.5,406.81-406.81,406.81Zm0-723.18c-174.45,0-316.37,141.92-316.37,316.37s141.92,316.37,316.37,316.37,316.37-141.92,316.37-316.37S581.26,90.44,406.81,90.44Z"/><path class="b" d="M1009.37,1010.77c-17.64,17.64-46.26,17.64-63.94,0l-261.97-261.97c23.47-19.04,44.95-40.43,64.08-63.81l261.83,261.83c17.68,17.64,17.68,46.31,0,63.94Z"/></svg>